<?xml version="1.0" encoding="UTF-8"?>
<!DOCTYPE svg PUBLIC "-//W3C//DTD SVG 1.1//EN" "http://www.w3.org/Graphics/SVG/1.1/DTD/svg11.dtd">
<!-- Creator: CorelDRAW -->
<svg xmlns="http://www.w3.org/2000/svg" xml:space="preserve" width="66.2673mm" height="66.2882mm" version="1.1" style="shape-rendering:geometricPrecision; text-rendering:geometricPrecision; image-rendering:optimizeQuality; fill-rule:evenodd; clip-rule:evenodd"
viewBox="0 0 2914.37 2915.29"
 xmlns:xlink="http://www.w3.org/1999/xlink"
 xmlns:xodm="http://www.corel.com/coreldraw/odm/2003">
 <defs>
  <style type="text/css">
   <![CDATA[
    .str1 {stroke:#2B2B2A;stroke-width:3.35;stroke-miterlimit:22.9256}
    .str0 {stroke:#2B2B2A;stroke-width:46.54;stroke-miterlimit:22.9256}
    .fil1 {fill:#2B2B2A}
    .fil0 {fill:#9FBCDC}
    .fil2 {fill:white;fill-rule:nonzero}
   ]]>
  </style>
 </defs>
 <g id="Ebene_x0020_1">
  <metadata id="CorelCorpID_0Corel-Layer"/>
  <polygon class="fil0 str0" points="23.27,2892.02 2662.01,2892.02 2662.01,253.28 23.27,253.28 "/>
  <polygon class="fil1 str1" points="2912.69,4.04 2912.69,2642.78 273.95,2642.78 "/>
  <polygon class="fil2" points="908.41,2504.55 908.41,2271.33 955.54,2271.33 955.54,2363.09 1047.81,2363.09 1047.81,2271.33 1094.89,2271.33 1094.89,2504.55 1047.81,2504.55 1047.81,2402.57 955.54,2402.57 955.54,2504.55 "/>
  <polygon class="fil2" points="1196.05,2504.55 1196.05,2310.8 1126.87,2310.8 1126.87,2271.33 1312.2,2271.33 1312.2,2310.8 1243.19,2310.8 1243.19,2504.55 "/>
  <polygon class="fil2" points="1343.85,2504.55 1343.85,2273.22 1390.94,2273.22 1390.94,2465.23 1508,2465.23 1508,2504.55 "/>
  <path class="fil2" d="M1614.33 2428.69l45.83 -4.51c2.71,15.42 8.3,26.72 16.79,33.94 8.41,7.16 19.76,10.81 34.09,10.81 15.15,0 26.6,-3.21 34.27,-9.67 7.71,-6.41 11.56,-13.9 11.56,-22.49 0,-5.54 -1.64,-10.21 -4.89,-14.06 -3.2,-3.91 -8.85,-7.28 -16.94,-10.11 -5.48,-1.94 -18.07,-5.32 -37.68,-10.2 -25.24,-6.25 -42.95,-13.95 -53.1,-23.08 -14.34,-12.81 -21.5,-28.45 -21.5,-46.92 0,-11.89 3.36,-22.96 10.09,-33.34 6.74,-10.32 16.46,-18.19 29.11,-23.62 12.71,-5.37 27.97,-8.09 45.9,-8.09 29.32,0 51.31,6.41 66.13,19.22 14.77,12.87 22.53,29.98 23.3,51.43l-47.09 2.06c-2,-12 -6.35,-20.63 -12.97,-25.85 -6.64,-5.26 -16.56,-7.87 -29.82,-7.87 -13.68,0 -24.44,2.78 -32.15,8.42 -4.98,3.58 -7.49,8.41 -7.49,14.44 0,5.54 2.34,10.26 7,14.18 5.92,4.99 20.36,10.2 43.27,15.57 22.93,5.43 39.86,11.03 50.83,16.79 10.97,5.81 19.55,13.69 25.79,23.73 6.2,10.05 9.29,22.42 9.29,37.14 0,13.36 -3.68,25.9 -11.12,37.52 -7.44,11.68 -17.92,20.36 -31.5,26.01 -13.58,5.7 -30.52,8.52 -50.77,8.52 -29.48,0 -52.13,-6.78 -67.94,-20.41 -15.8,-13.64 -25.24,-33.51 -28.28,-59.57z"/>
  <polygon class="fil2" points="1896.05,2504.55 1896.05,2310.8 1826.87,2310.8 1826.87,2271.33 2012.2,2271.33 2012.2,2310.8 1943.19,2310.8 1943.19,2504.55 "/>
  <polygon class="fil2" points="2042.61,2504.55 2042.61,2271.33 2215.5,2271.33 2215.5,2310.8 2089.68,2310.8 2089.68,2362.5 2206.76,2362.5 2206.76,2401.76 2089.68,2401.76 2089.68,2465.23 2219.95,2465.23 2219.95,2504.55 "/>
  <polygon class="fil2" points="2321.12,2504.55 2321.12,2406.37 2235.69,2271.33 2290.92,2271.33 2345.83,2363.59 2399.59,2271.33 2453.83,2271.33 2368.09,2406.7 2368.09,2504.55 "/>
  <path class="fil2" d="M2477.34 2504.55l0 -233.22 99.15 0c24.92,0 43.01,2.12 54.3,6.29 11.3,4.18 20.36,11.61 27.15,22.32 6.79,10.75 10.16,22.97 10.16,36.76 0,17.49 -5.17,31.98 -15.44,43.39 -10.26,11.35 -25.68,18.57 -46.15,21.51 10.21,5.97 18.62,12.49 25.26,19.6 6.62,7.12 15.53,19.71 26.77,37.85l28.5 45.51 -56.3 0 -34.06 -50.77c-12.1,-18.14 -20.36,-29.54 -24.8,-34.26 -4.45,-4.73 -9.18,-7.93 -14.18,-9.72 -5,-1.74 -12.86,-2.61 -23.73,-2.61l-9.5 0 0 97.36 -47.14 0zm47.14 -134.62l0 0 34.8 0c22.59,0 36.71,-0.92 42.36,-2.82 5.59,-1.9 9.98,-5.21 13.18,-9.89 3.17,-4.67 4.79,-10.48 4.79,-17.49 0,-7.87 -2.12,-14.17 -6.31,-19.01 -4.18,-4.83 -10.09,-7.87 -17.75,-9.17 -3.8,-0.49 -15.26,-0.77 -34.37,-0.77l-36.71 0 0 59.14z"/>
 </g>
</svg>
